<svg xmlns="http://www.w3.org/2000/svg" viewBox="0 0 17 17"><defs><style>.cls-1{fill:#3e522a;opacity:0.76;}.cls-2{fill:#fffef0;}</style></defs><g id="Layer_2" data-name="Layer 2"><g id="background"><circle class="cls-1" cx="8.5" cy="8.5" r="8.5"/><path class="cls-2" d="M11.43,11.91l-.4.8a4.17,4.17,0,0,1-2,.43c-3,0-4.61-1.79-4.61-4.38a4.42,4.42,0,0,1,4.7-4.5,3.7,3.7,0,0,1,2.42.68l-.47.59a3.86,3.86,0,0,0-2-.44A3.3,3.3,0,0,0,5.71,8.68a3.36,3.36,0,0,0,3.64,3.6,5.58,5.58,0,0,0,2.05-.4Z"/></g></g></svg>