<svg xmlns="http://www.w3.org/2000/svg" viewBox="0 0 73.34 70.89"><g id="Layer_2" data-name="Layer 2"><g id="background"><path d="M21.14,29.89c3.27,2.24,9,1.06,13.8-2.84a17.86,17.86,0,0,1,1.45,1.13c2.14,2,4.46,2.86,7.22,1.29a4.5,4.5,0,0,1,4.49.12,8.18,8.18,0,0,0,6.54.73c.91-.31,2.2.53,3.32.8.73.19,1.48.3,2.56.52.08,2.22.12,4.55.28,6.86,0,.54.46,1.45.8,1.5,3.06.43,3.67,2.54,3.63,5.07,0,3.25-1,6.06-4.17,7.63-.19.1-.4.28-.59.26-2.95-.28-3.81,2-5,4-2.45,4.19-6.16,7.05-10.36,9.28-1.2.64-2.4.9-2,2.63,0,.05-.22.17-.58.44l-.13-1.94c-4,2.12-8.17,1.75-12.52,1.26l-.08,1.89-.53.11-.24-2.36A18.08,18.08,0,0,1,19.22,62c-.72-.87-1.35-1.81-2-2.7s-.65-2.85-2.93-2.32c-.63.15-2.06-1.33-2.45-2.32A29,29,0,0,1,9.68,47a16.59,16.59,0,0,1,1.19-6.29c.18-.57,1.6-.74,2.79-1.25,0-2.25.07-5.1.1-8l.62-.06,1.19,2.47C18.26,33.7,19.43,31.45,21.14,29.89Zm-5,25.7C17,57,17.7,58.4,18.6,59.71c4.66,6.77,11.31,9.15,19.2,8.2a20.79,20.79,0,0,0,9.71-4.15c3.66-2.69,7-5.78,8.7-10.17.34-.87.81-1.12,1.81-1.17a6,6,0,0,0,6-5,8.67,8.67,0,0,0,0-4.63C63.42,41,61.8,40,59.86,41.21c0-3.12-.08-6-.11-8.89-2.06-.41-3.94-1.33-5.59-1-2.87.55-5.18-.54-7.66-1.4a2.48,2.48,0,0,0-1.72,0c-3.2,1.66-6.11,1.4-8.75-1.12-.12-.12-.21-.35-.32-.36-.55,0-1.31-.26-1.6,0-2.08,1.94-4.72,2.46-7.32,3.18a5.62,5.62,0,0,1-5.31-.77c-1.16.92-2.23,1.82-3.36,2.63-2,1.43-2.24,1.4-3.93-.28.14,2.73.27,5.32.41,8-2.48-1-3.18-.55-3.83,1.91-1.1,4.26.14,8,2.14,11.69C13.88,56.56,14.64,56.69,16.18,55.59Z"/><path d="M32.42,3.23C34.66,1.13,37.49.78,40.29.35a21.49,21.49,0,0,1,9.93.49A29.87,29.87,0,0,1,56.89,4a33.68,33.68,0,0,1,6,4.72c3.58,3.58,5.46,8.24,7.36,12.82a42.75,42.75,0,0,1,3.1,17.18A83.79,83.79,0,0,1,72,49.52a28.06,28.06,0,0,1-1.25,6.16,33.36,33.36,0,0,1-3.89,7.38c-1.48,2-3,3.82-2.26,6.55.08.28-.09.63-.21,1.28a28.36,28.36,0,0,1-2.74-2.77c-1-1.29-1.94-1.16-3.09-.44l-3.36,2.13a4.78,4.78,0,0,1-.81-1.07c-.5-1.52-1.7-1.47-2.89-1.31a8.78,8.78,0,0,0-2.15.67A2.77,2.77,0,0,1,45.6,67c.09-.06.23-.18.26-.16,2.09,1.77,4.07-.19,6.11-.25,1.32,0,2.22.19,2.85,1.32.44.82.93.77,1.54.18a6.38,6.38,0,0,1,1.16-.91c2.39-1.48,3.3-1.29,5.09,1a8,8,0,0,0,1.07.91c-.26-3.52,1.86-5.65,3.59-8a19.3,19.3,0,0,0,3.5-9.19c.25-2,.73-4,1.1-6A43.51,43.51,0,0,0,72,32.07,47.5,47.5,0,0,0,63.3,10.44c-2.11-2.95-5.14-4.79-8.12-6.65C49-.11,42.27.41,35.51,1.9a10.05,10.05,0,0,0-1.65.64C33.37,2.75,32.9,3,32.42,3.23Z"/><path d="M8.66,66.45c1.46-1.51,2.36-.57,3.29.47s2.05,2.19,3.1,3.3c.71-.54,1.26-1,1.82-1.36A2.7,2.7,0,0,1,20,68.58c1.73.87,3.61,2.09,5.59.1a2.64,2.64,0,0,1-3.84,1.55c-.53-.27-1.06-.54-1.58-.82A2.79,2.79,0,0,0,16.4,70c-1,1.15-2,.85-2.94-.07a20,20,0,0,1-2.05-2.52c-1.14-1.58-1.83-1.53-2.75.26-.21.42-.47.81-.93,1.6a5.13,5.13,0,0,1-.26-1.39c.77-3.53-.88-6.45-2.38-9.37C2.74,53.94.53,49.22.1,44.08A51.91,51.91,0,0,1,.89,32.37a34.89,34.89,0,0,1,2.26-7.6,50,50,0,0,1,9.3-15c3.91-4.43,8.9-6.19,14.29-7.39,1.05-.24,2.25.22,3.37.35L30,3.31a9.35,9.35,0,0,0-2.61-.2,53.71,53.71,0,0,0-6,1.64C15.22,6.82,11.33,11.69,8,16.81A52.4,52.4,0,0,0,2.51,28.39c-1,2.91-1.2,6.13-1.55,9.24a26,26,0,0,0-.09,6.29,38.66,38.66,0,0,0,4.6,13.72C7,60.33,8.41,63.08,8.66,66.45Z"/><path d="M28.44,39.42c0,1.85.15,3.45.07,5,0,.5-.56,1.34-.89,1.36a2,2,0,0,1-1.5-.88,6.55,6.55,0,0,1-.33-5.47c.19-.59,1-1,1.53-1.45Z"/><path d="M45.07,46.42c-2.16-1.06-2.26-4-.18-7.93.6.53,1.52.95,1.58,1.47C46.75,42.2,46.81,44.47,45.07,46.42Z"/><path d="M31,53.67c.85.47,2.09,1.23,3.39,1.84a4.11,4.11,0,0,0,5-.95,3.7,3.7,0,0,1,1.72-.93,6,6,0,0,1-4.07,3.11C34.79,57.27,31.8,55.34,31,53.67Z"/></g></g></svg>